# xmcd
#
# Track frame offsets: 
#        150
#        21355
#        39289
#        55955
#        76135
#        100237
#        120307
#        138935
#        162135
#        182465
#        203795
#        221732
#        244242
#
# Disc length: 3541 seconds
#
# Revision: 2
# Processed by: cddbd v1.5.2PL0 Copyright (c) Steve Scherf et al.
# Submitted via: ExactAudioCopyFreeDBPlugin 1.0
#
DISCID=a60dd30d
DTITLE=莫文蔚 - To Be
DYEAR=1997
DGENRE=Pop
TTITLE0=Love Yourself
TTITLE1=他不愛我
TTITLE2=想一個男生
TTITLE3=更衣室
TTITLE4=廣島之戀
TTITLE5=Snacks
TTITLE6=電台情歌
TTITLE7=午夜前的十分鐘
TTITLE8=信徒
TTITLE9=Love Yourself 讓我美
TTITLE10=只有冰淇淋的燭光晚餐
TTITLE11=拆信
TTITLE12=Love Yourself 愛自己
EXTD=
EXTT0=
EXTT1=
EXTT2=
EXTT3=
EXTT4=
EXTT5=
EXTT6=
EXTT7=
EXTT8=
EXTT9=
EXTT10=
EXTT11=
EXTT12=
PLAYORDER=
